<svg xmlns="http://www.w3.org/2000/svg" xmlns:xlink="http://www.w3.org/1999/xlink" viewBox="0 0 446.3 121.7"><defs><path id="a" d="M0 0h446.3v121.7H0z"/></defs><clipPath id="b"><use xlink:href="#a" overflow="visible"/></clipPath><path clip-path="url(#b)" fill="#FFF" d="M56.8 43.3c0 3.9-3.6 7-8 7-2.3 0-4.6-.9-6.1-2.4-1.3-1.3-1.9-2.9-1.9-4.6 0-1.7.7-3.3 1.9-4.5 1.5-1.5 3.7-2.4 6.1-2.4 2.3 0 4.5.9 6.1 2.4 1.2 1.2 1.9 2.8 1.9 4.5m-.4 53.3c0 3.8-3.6 7-8 7-2.3 0-4.6-.9-6.1-2.4-1.3-1.3-2-2.9-2-4.5 0-1.7.7-3.3 2-4.6 1.5-1.5 3.7-2.4 6.1-2.4 2.3 0 4.5.9 6.1 2.4 1.2 1.2 1.9 2.8 1.9 4.5m-20-17.3c0 3.8-3.6 7-8 7-2.3 0-4.6-.9-6.1-2.4-1.2-1.3-1.9-2.9-1.9-4.6 0-1.7.7-3.3 1.9-4.5 1.5-1.5 3.8-2.4 6.1-2.4s4.5.9 6.1 2.4c1.2 1.2 1.9 2.9 1.9 4.5m-.2-72.4c0 3.8-3.6 6.9-8 6.9-2.3 0-4.5-.9-6.1-2.4-1.2-1.3-1.9-2.9-1.9-4.6 0-1.7.7-3.3 1.9-4.6C23.6.9 25.8 0 28.1 0s4.6.9 6.1 2.4c1.3 1.3 2 2.9 2 4.5m0 18.1c0 3.8-3.6 7-8 7-5.5 0-7.6.5-9.2 2.1-1.6 1.5-2.9 4-2.9 8.7 0 3.8-3.6 7-8 7-2.3 0-4.6-.9-6.1-2.4-1.3-1.3-2-2.9-2-4.6 0-1.7.7-3.3 1.9-4.6 1.5-1.5 3.8-2.4 6.1-2.4 5.7 0 7.6-.5 9.3-2.2 1.6-1.6 2.8-3.9 2.8-8.6 0-1.7.7-3.3 2-4.5 1.5-1.5 3.7-2.4 6.1-2.4 2.3 0 4.6.9 6.1 2.4 1.2 1.3 1.9 2.9 1.9 4.5"/><path clip-path="url(#b)" fill="#FFF" d="M36.3 43.3c0 3.8-3.6 7-8 7-5.5 0-7.6.5-9.3 2.1-1.6 1.5-2.8 4-2.8 8.7 0 3.8-3.6 6.9-8 6.9-2.3 0-4.6-.9-6.1-2.4-1.3-1.3-2-2.9-2-4.5 0-1.7.7-3.3 2-4.5 1.5-1.5 3.8-2.4 6.1-2.4 5.7 0 7.6-.5 9.3-2.2 1.6-1.6 2.8-3.9 2.8-8.6 0-1.7.7-3.3 2-4.5 1.5-1.5 3.7-2.4 6.1-2.4 2.4 0 4.6.9 6.1 2.4 1.1 1.1 1.8 2.7 1.8 4.4m20.1 71.4c0 3.8-3.6 7-8 7-2.3 0-4.6-.9-6.1-2.4-1.3-1.3-2-2.9-2-4.6 0-1.7.7-3.3 2-4.5 1.5-1.5 3.7-2.4 6.1-2.4 2.3 0 4.5.9 6.1 2.4 1.2 1.2 1.9 2.9 1.9 4.5m-20-17.2c0 3.8-3.6 6.9-8 6.9-2.3 0-4.6-.9-6.1-2.4-1.2-1.2-1.9-2.9-1.9-4.5 0-1.7.7-3.3 1.9-4.5 1.5-1.5 3.8-2.4 6.1-2.4s4.5.9 6.1 2.4c1.2 1.2 1.9 2.8 1.9 4.5"/><path clip-path="url(#b)" fill="#FFF" d="M36.3 61.4c0 3.8-3.6 7-8 7-5.5 0-7.6.5-9.3 2.1-1.6 1.5-2.8 4-2.8 8.7 0 3.8-3.6 7-8 7-2.3 0-4.6-.9-6.1-2.4-1.3-1.2-2-2.9-2-4.5 0-1.7.7-3.3 2-4.5 1.5-1.5 3.8-2.4 6.1-2.4 5.7 0 7.6-.5 9.3-2.2 1.6-1.6 2.8-3.9 2.8-8.7 0-1.6.7-3.3 2-4.5 1.5-1.5 3.7-2.4 6.1-2.4 2.4 0 4.6.9 6.1 2.4 1.1 1.2 1.8 2.8 1.8 4.4M200 96.5c0-1.7.7-3.3 2-4.5 1.5-1.5 3.7-2.4 6.1-2.4 2.3 0 4.6.9 6.1 2.4 1.2 1.2 1.9 2.9 1.9 4.5 0 3.8-3.6 6.9-8 6.9-2.3 0-4.6-.9-6.1-2.4-1.3-1.2-2-2.8-2-4.5m-4.2-17.8c0 3.8-3.6 6.9-8 6.9-2.3 0-4.5-.9-6.1-2.4-1.3-1.2-1.9-2.9-1.9-4.5 0-1.7.7-3.3 1.9-4.6 1.6-1.5 3.8-2.4 6.1-2.4 2.4 0 4.6.9 6.1 2.4 1.2 1.3 1.9 3 1.9 4.6m-16-17.7c0-1.7.7-3.3 1.9-4.6 1.6-1.5 3.8-2.4 6.1-2.4 2.4 0 4.6.9 6.1 2.4 1.2 1.3 2 2.9 2 4.6 0 3.8-3.6 6.9-8 6.9-2.3 0-4.5-.9-6.1-2.4-1.4-1.2-2-2.8-2-4.5m0-17.7c0-1.7.7-3.3 1.9-4.5 1.6-1.5 3.8-2.4 6.1-2.4 2.4 0 4.6.9 6.1 2.4 1.2 1.2 2 2.9 2 4.5 0 3.9-3.6 7-8 7-2.3 0-4.5-.9-6.1-2.4-1.4-1.3-2-2.9-2-4.6m60.2-.1c0-1.7.7-3.3 1.9-4.5 1.5-1.5 3.8-2.4 6.1-2.4 2.4 0 4.6.9 6.1 2.4 1.3 1.3 1.9 2.9 1.9 4.6 0 3.8-3.6 7-8.1 7-2.3 0-4.5-.9-6.1-2.4-1.1-1.4-1.8-3-1.8-4.7M256.1 61c0 3.8-3.6 6.9-8 6.9-5.4 0-7.6.5-9.2 2.1-1.6 1.5-2.8 4-2.8 8.7 0 3.8-3.6 6.9-8 6.9-2.4 0-4.6-.9-6.1-2.4-1.3-1.2-1.9-2.9-1.9-4.5 0-1.7.7-3.3 1.9-4.6 1.5-1.5 3.7-2.4 6.1-2.4 5.7 0 7.6-.5 9.3-2.2 1.6-1.6 2.8-3.9 2.8-8.6 0-1.7.7-3.3 1.9-4.6 1.5-1.5 3.7-2.4 6.1-2.4 2.3 0 4.6.9 6.1 2.4 1.1 1.4 1.8 3 1.8 4.7M200 114.6c0-1.7.7-3.3 2-4.5 1.5-1.5 3.7-2.4 6.1-2.4 2.3 0 4.6.9 6.1 2.4 1.2 1.3 1.9 2.9 1.9 4.5 0 3.8-3.6 6.9-8 6.9-2.3 0-4.6-.9-6.1-2.4-1.3-1.2-2-2.8-2-4.5m-4.2-17.7c0 3.8-3.6 7-8 7-2.3 0-4.5-.9-6.1-2.4-1.3-1.2-1.9-2.9-1.9-4.5 0-1.7.7-3.3 1.9-4.5 1.6-1.5 3.8-2.4 6.1-2.4 2.4 0 4.6.9 6.1 2.4 1.2 1.1 1.9 2.7 1.9 4.4"/><path clip-path="url(#b)" fill="#FFF" d="M256.1 79.1c0 3.8-3.6 7-8 7-5.4 0-7.6.5-9.2 2.1-1.6 1.5-2.8 4-2.8 8.7 0 3.8-3.6 7-8 7-2.4 0-4.6-.9-6.1-2.4-1.3-1.2-1.9-2.9-1.9-4.5 0-1.7.7-3.3 1.9-4.5 1.5-1.5 3.7-2.4 6.1-2.4 5.7 0 7.6-.5 9.3-2.2 1.6-1.6 2.8-3.9 2.8-8.6 0-1.7.7-3.3 1.9-4.5 1.5-1.5 3.7-2.4 6.1-2.4 2.3 0 4.6.9 6.1 2.4 1.1 1 1.8 2.7 1.8 4.3"/><path clip-path="url(#b)" fill="#FFF" d="M256.1 96.9c0 3.8-3.6 7-8 7-5.5 0-7.6.5-9.2 2.1-1.6 1.5-2.8 4-2.8 8.7 0 3.8-3.6 6.9-8 6.9-2.3 0-4.5-.9-6.1-2.4-1.3-1.3-2-2.9-2-4.6 0-1.7.7-3.3 2-4.5 1.5-1.5 3.7-2.4 6.1-2.4 5.7 0 7.6-.5 9.3-2.2 1.6-1.6 2.8-3.9 2.8-8.6 0-1.7.7-3.3 2-4.5 1.5-1.5 3.7-2.4 6.1-2.4 2.3 0 4.5.9 6.1 2.4 1 1.2 1.7 2.8 1.7 4.5m85.8-53.6c0 3.9-3.6 7-8 7-2.4 0-4.6-.9-6.1-2.4-1.2-1.3-1.9-2.9-1.9-4.6 0-1.7.7-3.3 1.9-4.5 1.5-1.5 3.8-2.4 6.1-2.4s4.6.9 6.1 2.4c1.2 1.2 1.9 2.8 1.9 4.5M321.4 6.9c0 3.8-3.6 6.9-8.1 6.9-2.3 0-4.5-.9-6.1-2.4-1.3-1.3-2-2.9-2-4.6 0-1.7.7-3.3 2-4.6 1.5-1.5 3.7-2.4 6.1-2.4 2.3 0 4.6.9 6.1 2.4 1.3 1.5 2 3.1 2 4.7m20.2 89.7c0 3.8-3.6 7-8 7-2.3 0-4.5-.9-6.1-2.4-1.3-1.3-1.9-2.9-1.9-4.5 0-1.7.7-3.3 1.9-4.6 1.5-1.5 3.8-2.4 6.1-2.4s4.6.9 6.1 2.4c1.2 1.2 1.9 2.8 1.9 4.5m-20-17.3c0 3.8-3.6 7-8 7-2.3 0-4.6-.9-6.1-2.4-1.2-1.3-2-2.9-2-4.6 0-1.7.7-3.3 2-4.5 1.5-1.5 3.8-2.4 6.1-2.4s4.5.9 6.1 2.4c1.1 1.2 1.9 2.9 1.9 4.5m-.4-54.2c0 3.9-3.6 6.9-8 6.9-5.5 0-7.6.5-9.2 2.1-1.6 1.5-2.9 4-2.9 8.7 0 3.8-3.6 7-8 7-2.4 0-4.6-.9-6.1-2.4-1.3-1.2-1.9-2.9-1.9-4.5 0-1.7.7-3.3 1.9-4.5 1.5-1.5 3.7-2.4 6.1-2.4 5.7 0 7.6-.5 9.3-2.2 1.6-1.6 2.8-3.9 2.8-8.6 0-1.7.7-3.3 2-4.5 1.5-1.5 3.8-2.4 6.1-2.4s4.6.9 6.1 2.4c1.1 1.1 1.8 2.7 1.8 4.4"/><path clip-path="url(#b)" fill="#FFF" d="M321.4 43.3c0 3.9-3.6 7-8 7-5.4 0-7.6.5-9.2 2.1-1.6 1.5-2.9 4-2.9 8.7 0 3.9-3.6 7-8 7-2.3 0-4.5-.9-6.1-2.4-1.3-1.3-2-2.9-2-4.6 0-1.7.7-3.3 2-4.5 1.5-1.5 3.7-2.4 6.1-2.4 5.7 0 7.6-.5 9.3-2.2 1.6-1.6 2.8-3.9 2.8-8.6 0-1.7.7-3.3 1.9-4.5 1.5-1.5 3.8-2.4 6.1-2.4 2.4 0 4.6.9 6.1 2.4 1.2 1.1 1.9 2.8 1.9 4.4m20.2 71.4c0 3.8-3.6 7-8 7-2.3 0-4.5-.9-6.1-2.4-1.3-1.3-1.9-2.9-1.9-4.6 0-1.7.7-3.3 1.9-4.5 1.5-1.5 3.8-2.4 6.1-2.4s4.6.9 6.1 2.4c1.2 1.2 1.9 2.9 1.9 4.5m-20-17.2c0 3.8-3.6 6.9-8 6.9-2.3 0-4.6-.9-6.1-2.4-1.2-1.2-2-2.9-2-4.5 0-1.7.7-3.3 2-4.5 1.5-1.5 3.8-2.4 6.1-2.4s4.5.9 6.1 2.4c1.1 1.2 1.9 2.8 1.9 4.5"/><path clip-path="url(#b)" fill="#FFF" d="M321.4 61.5c0 3.8-3.6 6.9-8 6.9-5.4 0-7.6.5-9.2 2.1-1.6 1.5-2.9 4-2.9 8.7 0 3.8-3.6 6.9-8 6.9-2.3 0-4.5-.9-6.1-2.4-1.3-1.3-2-2.8-2-4.5 0-1.7.7-3.3 2-4.5 1.5-1.6 3.7-2.4 6.1-2.4 5.7 0 7.6-.5 9.3-2.2 1.6-1.6 2.8-3.9 2.8-8.6 0-1.7.7-3.3 1.9-4.5 1.5-1.5 3.8-2.4 6.1-2.4 2.4 0 4.6.9 6.1 2.4 1.2 1.2 1.9 2.8 1.9 4.5M157.1 43.3c0 3.9-3.6 7-8 7-2.3 0-4.5-.9-6.1-2.4-1.2-1.3-2-2.9-2-4.6 0-1.7.7-3.3 2-4.5 1.5-1.5 3.8-2.4 6.1-2.4s4.6.9 6.1 2.4c1.3 1.2 1.9 2.9 1.9 4.5m-22-22.7c-1.5-1.5-3.7-2.4-6.1-2.4-2.3 0-4.5.9-6.1 2.4-1.3 1.3-2 2.9-2 4.6 0 4.7-1.2 7.1-2.8 8.6-1.7 1.7-3.6 2.2-9.2 2.2h-.1c-2.3 0-4.5.9-6.1 2.4-1.2 1.3-1.9 2.9-1.9 4.6 0 4.7-1.2 7-2.8 8.6-1.7 1.7-3.6 2.2-9.3 2.2-2.3 0-4.6.9-6.1 2.4-1.3 1.2-2 2.9-2 4.6 0 1.6.7 3.3 2 4.5 1.5 1.5 3.8 2.4 6.1 2.4 4.4 0 8-3.1 8-6.9 0-4.7 1.2-7.2 2.8-8.7 1.7-1.5 3.8-2.1 9.1-2.1h.1c4.4 0 8-3.1 8-6.9 0-4.7 1.2-7.2 2.9-8.7 1.7-1.6 3.8-2.1 9.2-2.1 4.4 0 8-3.1 8-7 .2-1.8-.4-3.4-1.7-4.7m22 40.9c0 3.8-3.6 6.9-8 6.9-2.3 0-4.5-.9-6.1-2.4-1.2-1.3-2-2.9-2-4.6 0-1.7.7-3.3 2-4.5 1.5-1.5 3.8-2.4 6.1-2.4s4.6.9 6.1 2.4c1.3 1.3 1.9 2.9 1.9 4.6m-40 35.5c0 3.9-3.7 7.2-8.2 7.2-2.4 0-4.7-.9-6.2-2.4-1.3-1.3-2-3-2-4.7 0-1.7.7-3.4 2-4.7 1.6-1.6 3.8-2.5 6.2-2.5 2.4 0 4.7.9 6.2 2.5 1.3 1.2 2 2.9 2 4.6m-.2 17.8c0 3.8-3.6 7-8 7-2.3 0-4.5-.9-6.1-2.4-1.2-1.2-1.9-2.9-1.9-4.5 0-1.7.7-3.3 1.9-4.6 1.6-1.5 3.8-2.4 6.1-2.4s4.6.9 6.1 2.4c1.2 1.1 1.9 2.8 1.9 4.5"/><path clip-path="url(#b)" fill="#FFF" d="M116.9 79.2c0 3.8-3.6 6.9-8 6.9-5.5 0-7.6.5-9.2 2.1-1.6 1.5-2.8 4-2.8 8.7 0 3.8-3.6 6.9-8 6.9-2.3 0-4.5-.9-6.1-2.4-1.3-1.3-2-2.9-2-4.5 0-1.7.7-3.3 2-4.6 1.5-1.5 3.7-2.4 6.1-2.4 5.7 0 7.6-.5 9.3-2.2 1.6-1.6 2.8-3.9 2.8-8.6 0-1.7.7-3.3 1.9-4.5 1.5-1.5 3.7-2.4 6.1-2.4 2.3 0 4.6.9 6.1 2.4 1.1 1.3 1.8 2.9 1.8 4.6"/><path clip-path="url(#b)" fill="#FFF" d="M135.1 38.8c-1.5-1.5-3.7-2.4-6.1-2.4-2.3 0-4.5.9-6.1 2.4-1.3 1.3-2 2.9-2 4.5 0 4.7-1.2 7-2.8 8.6-1.7 1.7-3.6 2.2-9.3 2.2-1.2 0-2.3.2-3.3.7-1 .4-2 1-2.8 1.7-1.3 1.3-1.9 2.9-1.9 4.5 0 4.7-1.2 7-2.8 8.6-.8.8-1.7 1.4-3.1 1.7-.4.1-.9.1-1.4.2-.4.1-.7.1-1.1.2-.6 0-1.5 0-2.3.1h-1.4c-.6 0-1.1.2-1.7.3-.5.1-1.1.1-1.6.3-1.1.4-2 1-2.8 1.8-1.3 1.3-2 2.9-2 4.6 0 1.7.7 3.3 2 4.6 1.5 1.5 3.7 2.4 6.1 2.4 4.4 0 8-3.1 8-7 0-4.7 1.2-7.2 2.8-8.7 1.7-1.5 3.8-2.1 9.2-2.1 4.4 0 8-3.1 8-7 0-4.7 1.2-7.2 2.9-8.7 1.7-1.6 3.8-2.1 9.2-2.1 4.4 0 8-3.1 8-7 .2-1.6-.4-3.2-1.7-4.4M406 7.8c0 3.8-3.6 7-8 7-2.3 0-4.6-.9-6.1-2.4-1.3-1.3-1.9-2.8-1.9-4.6 0-1.7.7-3.3 1.9-4.5 1.5-1.5 3.7-2.4 6.1-2.4 2.3 0 4.5.9 6.1 2.4 1.2 1.2 1.9 2.8 1.9 4.5m20 35.5c0 3.9-3.6 7-8 7-2.3 0-4.5-.9-6.1-2.4-1.3-1.3-2-2.9-2-4.6 0-1.7.7-3.3 2-4.5 1.5-1.5 3.7-2.4 6.1-2.4 2.3 0 4.6.9 6.1 2.4 1.2 1.2 1.9 2.9 1.9 4.5m4.2 17.8c0-1.7.7-3.3 1.9-4.5 1.6-1.5 3.8-2.4 6.1-2.4s4.5.9 6.1 2.4c1.3 1.2 2 2.9 2 4.5 0 3.9-3.6 7-8 7-2.3 0-4.6-.9-6.1-2.4-1.3-1.3-2-2.9-2-4.6m16.1 17.8c0 3.8-3.6 7-8 7-2.3 0-4.6-.9-6.1-2.4-1.2-1.3-1.9-2.9-1.9-4.6 0-1.7.7-3.3 1.9-4.5 1.6-1.5 3.8-2.4 6.1-2.4s4.5.9 6.1 2.4c1.2 1.2 1.9 2.8 1.9 4.5m0 17.6c0 3.8-3.6 6.9-8 6.9-2.3 0-4.6-.9-6.1-2.4-1.2-1.2-1.9-2.9-1.9-4.5 0-1.7.7-3.3 1.9-4.5 1.6-1.5 3.8-2.4 6.1-2.4s4.5.9 6.1 2.4c1.2 1.2 1.9 2.8 1.9 4.5M406 25.6c0 3.8-3.6 6.9-8.1 6.9-5.4 0-7.6.5-9.2 2.1-1.6 1.5-2.8 4-2.8 8.7 0 3.8-3.6 6.9-8 6.9-2.4 0-4.5-.9-6.1-2.4-1.3-1.3-2-2.9-2-4.6 0-1.7.7-3.3 2-4.5 1.5-1.5 3.7-2.4 6.1-2.4 5.7 0 7.7-.5 9.3-2.2 1.6-1.6 2.8-3.9 2.8-8.6 0-1.7.7-3.3 1.9-4.6 1.5-1.5 3.7-2.4 6-2.4s4.6.9 6.1 2.4c1.3 1.4 2 3 2 4.7"/><path clip-path="url(#b)" fill="#FFF" d="M405.9 43.3c0 3.9-3.6 7-8 7-5.5 0-7.6.5-9.3 2.1-1.6 1.5-2.8 4-2.8 8.7 0 3.8-3.6 7-8 7-2.3 0-4.5-.9-6.1-2.4-1.3-1.3-2-2.9-2-4.5 0-1.7.7-3.3 2-4.5 1.5-1.5 3.7-2.4 6.1-2.4 5.7 0 7.7-.5 9.3-2.2 1.6-1.6 2.8-3.9 2.8-8.6 0-1.7.7-3.3 2-4.5 1.5-1.5 3.7-2.4 6.1-2.4 2.3 0 4.6.9 6.1 2.4 1.1 1 1.8 2.6 1.8 4.3M426 61.5c0 3.8-3.6 6.9-8 6.9-2.3 0-4.5-.9-6.1-2.4-1.3-1.3-2-2.9-2-4.6 0-1.7.7-3.3 2-4.5 1.5-1.5 3.7-2.4 6.1-2.4 2.3 0 4.6.9 6.1 2.4 1.2 1.3 1.9 2.9 1.9 4.6m20.3 53.1c0 3.8-3.6 6.9-8 6.9-2.3 0-4.6-.9-6.1-2.4-1.2-1.3-1.9-2.9-1.9-4.6 0-1.7.7-3.3 1.9-4.5 1.6-1.5 3.8-2.4 6.1-2.4s4.5.9 6.1 2.4c1.2 1.4 1.9 3 1.9 4.6m-60.3.2c0 3.8-3.6 7-8 7-2.3 0-4.6-.9-6-2.4-1.3-1.2-2-2.9-2-4.5 0-1.7.7-3.3 2-4.6 1.5-1.5 3.7-2.4 6-2.4s4.6.9 6.1 2.4c1.2 1.1 1.9 2.8 1.9 4.5"/><path clip-path="url(#b)" fill="#FFF" d="M405.9 61.4c0 3.8-3.6 7-8 7-5.5 0-7.6.5-9.3 2.1-1.6 1.5-2.8 4-2.8 8.7 0 3.8-3.6 6.9-8 6.9-2.3 0-4.5-.9-6.1-2.4-1.3-1.2-2-2.9-2-4.5 0-1.7.7-3.3 2-4.5 1.5-1.5 3.7-2.4 6.1-2.4 5.7 0 7.7-.5 9.3-2.2 1.6-1.6 2.8-3.9 2.8-8.7 0-1.6.7-3.3 2-4.5 1.5-1.5 3.7-2.4 6.1-2.4 2.3 0 4.6.9 6.1 2.4 1.1 1.3 1.8 2.9 1.8 4.5"/><path clip-path="url(#b)" fill="#FFF" d="M406 79.3c0 3.8-3.6 6.9-8.1 6.9-5.5 0-7.6.5-9.2 2.1-1.6 1.5-2.8 4-2.8 8.7 0 3.8-3.6 7-8 7-2.4 0-4.5-.9-6.1-2.4-1.3-1.2-2-2.9-2-4.5 0-1.7.7-3.3 2-4.5 1.5-1.5 3.7-2.4 6.1-2.4 5.7 0 7.7-.5 9.3-2.2 1.6-1.6 2.8-3.9 2.8-8.6 0-1.7.7-3.3 1.9-4.6 1.5-1.5 3.7-2.4 6.1-2.4 2.3 0 4.5.9 6.1 2.4 1.2 1.2 1.9 2.8 1.9 4.5m8.6-73.2c0-2.5 2-4.3 4.4-4.3 2.4 0 4.4 1.8 4.4 4.3s-2 4.4-4.4 4.4c-2.4-.1-4.4-1.9-4.4-4.4m4.4 3.6c2 0 3.5-1.6 3.5-3.7S421 2.4 419 2.4 415.4 4 415.4 6c.1 2.1 1.6 3.7 3.6 3.7m-.9-1.1h-.8v-5h1.9c1.2 0 1.8.4 1.8 1.4 0 .9-.6 1.3-1.3 1.4l1.5 2.2h-.9L419 6.4h-.8v2.2zm.9-2.9c.6 0 1.2 0 1.2-.8 0-.6-.6-.7-1.1-.7h-1v1.6h.9z"/></svg>